<svg width="196" height="196" viewBox="0 0 196 196" fill="none" xmlns="http://www.w3.org/2000/svg">
<g clip-path="url(#clip0)">
<path d="M195.541 60.377C195.533 58.354 195.477 56.294 195.434 54.243C195.795 53.719 195.852 53.047 195.403 52.416C195.126 42.08 194.346 31.525 192.538 21.461C192.578 20.888 192.48 20.327 192.248 19.804C192.236 19.747 192.227 19.688 192.217 19.631C192.1 19.023 191.641 18.645 191.104 18.495C190.656 18.215 190.14 18.005 189.482 17.986C187.19 17.92 184.901 17.831 182.611 17.755C182.543 17.655 182.478 17.551 182.41 17.452C181.955 16.802 181.048 17.11 180.912 17.698C163.504 17.1 146.116 16.254 128.711 15.507C127.241 15.444 125.707 15.355 124.145 15.258C124.01 14.934 123.858 14.619 123.729 14.292C123.316 13.248 121.638 13.657 122.01 14.766C122.052 14.892 122.111 15.007 122.154 15.132C107.897 14.189 90.737 12.603 77.74 17.274C77.431 16.907 77.131 16.534 76.822 16.168C76.223 15.458 74.963 16.423 75.531 17.164C75.724 17.416 75.912 17.671 76.106 17.923C75.505 18.171 74.895 18.405 74.315 18.685C74.296 18.694 74.286 18.709 74.269 18.719C73.753 18.666 73.224 18.708 72.727 18.978C64.82 23.277 67.232 48.711 67.204 55.886C67.18 61.971 65.728 82.553 72.421 88.08C71.415 89.886 72.355 92.951 75.131 93.272C84.772 94.387 94.65 94.838 104.373 94.791C104.798 95.491 105.519 96.043 106.617 96.139C120.45 97.348 134.519 96.811 148.404 96.75C156.028 101.95 160.615 110.964 168.608 115.604C169.97 116.395 171.187 116.079 171.974 115.283C173.215 115.797 174.88 115.16 175.033 113.342C175.622 106.312 175.876 99.22 176.696 92.208C180.983 92.239 184.96 91.232 189.226 89.786C190.678 89.294 191.354 88.122 191.428 86.916C197.365 81.967 195.565 66.752 195.541 60.377ZM184.591 24.406C185.534 26.024 186.611 27.918 188.102 29.146C188.013 31.809 187.993 34.483 188.07 37.164C185.961 34.889 183.45 32.801 181.449 30.65C179.639 28.704 177.431 26.571 175.61 24.308C178.603 24.377 181.596 24.405 184.591 24.406ZM173.489 24.244C174.766 26.614 176.609 28.724 178.278 30.815C181.141 34.403 184.359 39.309 188.245 41.965C188.302 43.181 188.36 44.399 188.423 45.611C180.956 38.444 173.467 31.302 166.092 24.019C168.558 24.117 171.022 24.176 173.489 24.244ZM163.058 23.896C163.098 23.984 163.13 24.073 163.198 24.157C170.714 33.613 179.478 43.174 188.702 51.292C188.736 52.07 188.771 52.849 188.798 53.622C188.844 54.962 188.852 56.302 188.877 57.642C184.936 52.042 179.58 47.32 174.694 42.6C171.64 39.651 168.576 36.712 165.549 33.735C163.711 31.927 161.892 30.098 160.077 28.267C160.083 28.273 158.528 26.794 157.399 25.754C157.461 25.701 157.499 25.617 157.441 25.537C156.864 24.754 156.501 24.096 156.059 23.566C158.392 23.685 160.725 23.794 163.058 23.896ZM75.858 86.835C75.942 83.886 75.027 80.877 74.687 77.944C74.503 76.351 74.361 74.753 74.234 73.154C77.095 75.382 79.857 77.733 82.591 80.13C85.37 82.568 88.293 85.797 91.586 87.815C86.335 87.459 81.059 87.276 75.858 86.835ZM95.07 88.085C95.157 87.704 95.093 87.282 94.816 86.986C91.492 83.432 86.776 80.682 82.961 77.608C80.08 75.286 77.166 72.935 74.075 70.876C73.81 66.796 73.705 62.706 73.658 58.621C74.153 59.118 74.899 60.227 75.138 60.496C76.806 62.378 78.406 64.33 80.004 66.272C83.281 70.254 86.465 74.309 89.854 78.199C92.75 81.524 96.538 85.408 100.593 88.699C98.759 88.451 96.919 88.246 95.07 88.085ZM110.173 90.332C106.902 86.727 101.274 83.866 97.899 81.182C93.348 77.563 89.647 73.163 85.832 68.8C82.724 65.244 78.883 59.086 74.297 57.339C74.031 57.238 73.844 57.225 73.636 57.189C73.633 56.754 73.618 56.318 73.616 55.884C73.606 53.5 73.656 51.115 73.733 48.732C78.442 54.22 84.616 60.186 85.823 61.529C90.648 66.894 95.425 72.259 100.094 77.766C103.161 81.382 107.098 86.986 111.67 90.267C111.172 90.296 110.671 90.299 110.173 90.332ZM118.399 89.972C118.316 89.885 118.249 89.791 118.143 89.714C107.294 81.83 99.166 71.026 89.873 61.447C84.786 56.204 79.632 48.996 73.936 43.911C74.131 40.384 74.405 36.862 74.764 33.349C74.85 32.501 75.039 31.576 75.264 30.61C81.638 41.128 89.867 50.303 98.194 59.338C107.228 69.142 115.674 80.36 125.027 89.859C122.817 89.88 120.605 89.907 118.399 89.972ZM129.513 89.843C125.749 80.336 115.634 72.328 108.678 65.31C97.049 53.576 84.904 41.961 75.905 28.011C76.41 25.953 76.858 23.85 76.733 21.992C77.621 22.127 78.513 22.221 79.406 22.291C88.08 33.715 96.629 45.232 105.444 56.55C113.866 67.363 123.177 81 134.448 89.872C132.803 89.861 131.159 89.843 129.513 89.843ZM140.724 89.909C131.209 78.722 120.103 68.742 110.62 57.401C100.954 45.844 91.606 34.027 82.006 22.416C84.272 22.465 86.55 22.366 88.83 22.235C96.829 36.936 107.876 49.959 118.868 62.462C126.739 71.415 135.111 81.203 144.139 89.932C142.999 89.923 141.864 89.919 140.724 89.909ZM163.372 102.872C163.589 102.238 163.534 101.493 163.044 100.916C151.431 87.247 136.814 75.621 124.41 62.584C112.348 49.906 100.806 36.631 91.024 22.104C92.887 21.987 94.75 21.867 96.61 21.805C97.059 21.79 97.51 21.794 97.959 21.781C106.104 36.359 117.327 48.6 128.843 60.624C142.95 75.353 155.957 89.949 168.004 106.437C168.625 107.288 169.56 107.375 170.261 107.029C170.3 107.855 170.323 108.681 170.373 109.509C167.874 107.463 165.62 105.169 163.372 102.872ZM170.133 103.14C153.506 71.539 120.297 51.267 100.211 21.744C102.752 21.696 105.294 21.689 107.837 21.704C121.125 49.127 148.026 73.111 170.426 92.426C170.429 92.428 170.432 92.429 170.432 92.429C170.145 96.007 170.07 99.571 170.133 103.14ZM173.937 85.768C172.557 85.591 171.589 86.585 171.109 87.733C150.898 65.218 126.999 47.081 110.074 21.732C115.091 21.791 120.105 21.942 125.116 22.116C130.494 33.004 138.797 42.121 147.216 50.925C153.632 57.635 159.929 64.174 165.751 71.414C169.023 75.483 173.029 82.863 177.248 85.914C176.169 85.952 175.071 85.913 173.937 85.768ZM187.94 78.471C170.141 61.687 155.415 43.461 140.505 23.943C139.634 22.802 137.673 23.869 138.532 25.096C145.651 35.263 152.804 45.447 160.431 55.242C167.768 64.663 176.294 76.965 187.309 82.424C187.264 82.855 187.188 83.29 187.174 83.719C184.963 84.47 182.82 85.137 180.635 85.537C180.728 85.328 180.802 85.108 180.831 84.872C180.893 84.369 180.956 83.866 181.017 83.363C181.127 82.476 180.454 81.981 179.71 81.908C179.698 81.89 179.704 81.88 179.691 81.861C177.353 78.109 177.826 78.832 174.376 75.273C168.662 69.377 163.813 62.761 158.049 56.906C147.367 46.057 135.237 35.521 127.579 22.199C127.954 22.212 128.33 22.222 128.704 22.236C135.018 22.47 141.335 22.802 147.651 23.136C151.713 33.143 159.197 41.75 166.113 49.884C172.862 57.821 180.068 67.593 188.703 73.583C188.707 73.586 188.712 73.586 188.716 73.589C188.579 75.21 188.274 76.84 187.94 78.471ZM188.883 68.868C176.875 53.039 159.029 41.555 150.034 23.261C150.984 23.311 151.935 23.356 152.886 23.406C152.881 23.587 152.91 23.772 153.038 23.943C157.711 30.25 163.102 35.947 168.525 41.608C174.723 48.082 180.541 55.233 187.11 61.307C187.657 61.813 188.35 61.878 188.943 61.67C188.951 64.07 188.935 66.469 188.883 68.868Z" fill="black"/>
<path d="M132.302 110.497C132.332 110.194 132.317 109.901 132.333 109.601C134.85 108.138 134.29 103.369 130.638 103.322C109.683 103.05 87.775 99.087 66.792 101.741C66.783 101.731 66.774 101.723 66.766 101.716C66.35 101.32 65.852 101.514 65.638 101.885C63.941 102.12 62.247 102.386 60.563 102.717C60.55 102.635 60.551 102.558 60.532 102.474C57.379 88.712 65.069 72.18 58.463 59.096C58.349 58.87 58.16 58.664 57.946 58.474C59.489 56.985 58.456 54.45 56.251 54.238C49.318 53.574 41.793 55.292 34.729 55.29C26.002 55.287 17.219 54.56 8.511 55.306C5.969 55.524 5.457 58.238 6.865 59.595C3.911 63.18 3.624 69.969 3.079 74.159C1.609 85.466 0.845999 96.843 0.350999 108.23C-0.117001 119.017 -0.190001 129.885 0.583999 140.66C0.869999 144.656 0.667999 151.337 4.989 153.312C6.099 153.821 7.423 153.536 8.211 152.761C8.44 152.959 8.704 153.119 9.046 153.168C16.271 154.218 23.599 154.283 30.852 155.18C30.299 157.828 30.372 160.626 30.404 163.865C30.451 168.518 29.802 176.71 32.516 180.76C33.652 182.455 36.286 182.621 37.389 180.99C37.775 181.025 38.167 181.005 38.543 180.841C43.857 178.526 47.622 174.106 51.083 169.61C53.138 166.938 55.026 164.138 57.033 161.431C58.191 159.871 59.515 158.499 60.623 156.98C60.878 157.013 61.127 157.063 61.409 157.025C84.153 153.963 106.749 159.617 129.526 159.026C131.518 158.973 132.905 157.469 133.02 155.53C133.839 141.934 130.522 127.331 134.701 114.155C135.36 112.078 133.953 110.73 132.302 110.497ZM126.658 116.35C125.504 115.123 124.229 113.987 123.111 112.898C121.987 111.806 120.817 110.763 119.615 109.76C121.968 109.825 124.319 109.926 126.673 109.965C126.752 112.093 126.921 114.189 126.658 116.35ZM115.358 109.636C117.343 111.315 119.241 113.084 121.035 114.974C122.648 116.673 124.054 118.708 125.707 120.419C125.377 122.153 125.161 123.96 125.048 125.825C122.958 123.658 120.685 121.62 118.618 119.54C115.262 116.164 111.918 112.769 108.517 109.436C110.797 109.521 113.078 109.562 115.358 109.636ZM54.135 60.394C54.273 62.663 54.106 70.771 53.962 79.438C51.155 76.787 48.173 74.293 45.449 71.542C42.233 68.293 39.082 64.99 35.79 61.818C41.465 61.96 48.53 62.328 54.135 60.394ZM34.601 61.787C34.365 62.057 34.292 62.468 34.614 62.809C40.837 69.382 46.674 77.267 53.909 82.788C53.879 84.83 53.852 86.866 53.833 88.827C50.274 85.659 46.024 82.822 43.059 80.279C36.317 74.499 30.618 68.58 25.405 61.483C28.472 61.614 31.54 61.729 34.601 61.787ZM9.046 149.005C8.83 149.036 8.65 149.121 8.479 149.216C7.37 145.254 6.823 140.997 6.556 136.643C7.963 140.359 10.305 143.511 13.053 146.376C13.59 146.936 14.259 147.646 15.004 148.381C13.001 148.515 11.011 148.721 9.046 149.005ZM20.265 148.213C18.681 147.273 17.254 146.085 15.872 144.877C12.845 142.231 10.073 138.985 8.569 135.222C8.177 134.243 6.981 134.218 6.441 134.79C6.293 131.208 6.356 127.579 6.473 123.977C13.192 133.609 22.123 141.278 31.183 148.804C27.584 148.417 23.929 148.191 20.265 148.213ZM38.081 175.172C37.88 171.876 37.149 168.379 37.009 165.434C36.98 164.83 36.965 164.225 36.942 163.621C37.787 164.777 38.695 165.89 39.637 166.968C40.347 167.781 41.463 169.221 42.699 170.403C41.26 172.07 39.75 173.673 38.081 175.172ZM44.658 168.005C43.723 167.266 42.827 166.466 41.967 165.662C40.038 163.855 38.249 161.853 36.793 159.64C36.755 158.501 36.716 157.363 36.666 156.223C36.605 154.814 36.39 153.818 36.081 152.873C40.166 156.279 44.198 159.726 47.988 163.379C46.917 164.988 45.809 166.522 44.658 168.005ZM50.12 159.99C35.908 146.387 17.831 136.612 6.605 120.118C6.787 116.02 7.014 112.002 7.125 108.23C7.126 108.196 7.129 108.162 7.13 108.126C12.551 115.768 18.947 122.646 25.565 129.346C34.23 138.12 43.064 148.096 52.808 155.638C52.847 155.668 52.894 155.677 52.934 155.704C51.918 157.076 50.996 158.555 50.12 159.99ZM61.671 151.518C60.974 150.692 59.881 150.2 58.841 150.622C57.477 151.175 56.279 152.051 55.191 153.104C49.411 144.879 40.475 138.357 33.15 131.577C23.964 123.073 14.997 114.266 7.306 104.387C7.435 101.02 7.628 97.656 7.829 94.29C16.024 104.731 25.511 114.019 35.277 123.004C45.306 132.231 55.396 142.601 66.368 150.821C64.802 151.015 63.236 151.238 61.671 151.518ZM71.111 150.346C71.086 150.306 71.083 150.262 71.054 150.223C63.156 139.616 50.788 131.666 40.65 123.314C28.953 113.677 17.634 103.665 7.948 91.984C8.238 87.539 8.593 83.098 9.042 78.667C9.08 78.295 9.138 77.917 9.188 77.542C20.74 91.62 35.15 103.392 48.644 115.537C60.714 126.402 70.902 138.209 81.759 150.027C78.209 150.007 74.66 150.07 71.111 150.346ZM86.583 150.098C80.493 136.276 65.343 125.32 54.214 115.745C39.192 102.823 24.016 90.369 10.241 76.081C9.981 75.811 9.689 75.771 9.432 75.851C10.262 70.819 11.759 65.581 11.792 60.67C11.792 60.659 11.787 60.649 11.787 60.638C15.585 60.973 19.399 61.224 23.214 61.411C24.854 68.693 32.587 74.899 37.734 79.739C41.222 83.018 44.829 86.169 48.375 89.383C50.186 91.024 51.925 93.044 53.805 94.812C53.814 99.455 53.915 103.033 54.191 104.222C54.286 104.631 54.442 104.97 54.632 105.264C41.009 91.779 28.193 75.753 13.247 64.194C12.883 63.912 12.357 64.254 12.59 64.7C21.132 81.018 38.827 94.896 51.733 107.76C65.766 121.748 79.588 137.82 94.97 150.506C92.173 150.335 89.378 150.186 86.583 150.098ZM100.527 150.867C88.878 134.942 71.707 121.62 57.47 108.066C57.319 107.921 57.171 107.765 57.02 107.621C57.135 107.641 57.235 107.683 57.361 107.684C61.666 107.723 65.966 107.852 70.267 107.975C82.965 122.257 96.47 134.983 106.935 151.312C104.798 151.167 102.662 151.015 100.527 150.867ZM111.09 151.572C104.089 134.146 87.853 120.767 73.662 108.051C77.241 108.167 80.818 108.311 84.396 108.455C97.105 122.301 109.697 135.936 119.636 151.966C116.784 151.876 113.936 151.745 111.09 151.572ZM124.463 152.051C114.939 135.465 101.344 121.552 87.388 108.572C89.621 108.665 91.853 108.76 94.085 108.856C94.056 109.133 94.126 109.416 94.371 109.637C100.798 115.466 106.407 121.9 111.587 128.857C115.341 133.9 118.235 141.378 123.001 145.402C124.095 146.326 125.535 145.438 125.306 144.059C124.279 137.894 117.949 131.664 114.17 126.864C109.048 120.354 103.341 114.115 96.818 108.971C99.467 109.083 102.118 109.181 104.767 109.287C108.307 113.133 111.842 116.982 115.32 120.885C118.383 124.324 121.331 128.466 124.961 131.42C125.105 138.543 126.043 145.943 126.102 152.08C125.555 152.082 125.01 152.054 124.463 152.051Z" fill="black"/>
</g>
<defs>
<clipPath id="clip0">
<rect width="195.815" height="195.815" fill="white"/>
</clipPath>
</defs>
</svg>
